<svg width="860" height="312" viewBox="0 0 860 312" fill="none" xmlns="http://www.w3.org/2000/svg" role="img" aria-label="305 contributions in the last 31 days">
  <rect x="10" y="10" width="850" height="302" fill="#FFD500"/><rect x="2" y="2" width="850" height="302" fill="#0d1117" stroke="#30363d" stroke-width="2"/><rect x="64" y="46" width="8" height="8" fill="#FFD500" stroke="#30363d" stroke-width="1.5"/><text x="84" y="54" font-size="10" letter-spacing="2" font-weight="700" font-family="ui-monospace,SFMono-Regular,'SF Mono',Menlo,Consolas,monospace"><tspan fill="#FFD500">//</tspan><tspan fill="#999999">&#160;ACTIVITY / LAST 31 DAYS</tspan></text><text x="796" y="54" font-size="11" font-weight="700" fill="#999999" font-family="ui-monospace,SFMono-Regular,'SF Mono',Menlo,Consolas,monospace" text-anchor="end">305 contributions · max 42/day</text>
  <line x1="54" y1="217.5" x2="806" y2="217.5" stroke="#21262d" stroke-opacity="1" stroke-width="2" stroke-dasharray="2 8"/><text x="46" y="221.5" font-size="11" font-weight="700" fill="#999999" font-family="ui-monospace,SFMono-Regular,'SF Mono',Menlo,Consolas,monospace" text-anchor="end">11</text>
  <line x1="54" y1="177.0" x2="806" y2="177.0" stroke="#21262d" stroke-opacity="1" stroke-width="2" stroke-dasharray="2 8"/><text x="46" y="181.0" font-size="11" font-weight="700" fill="#999999" font-family="ui-monospace,SFMono-Regular,'SF Mono',Menlo,Consolas,monospace" text-anchor="end">21</text>
  <line x1="54" y1="136.5" x2="806" y2="136.5" stroke="#21262d" stroke-opacity="1" stroke-width="2" stroke-dasharray="2 8"/><text x="46" y="140.5" font-size="11" font-weight="700" fill="#999999" font-family="ui-monospace,SFMono-Regular,'SF Mono',Menlo,Consolas,monospace" text-anchor="end">32</text>
  <line x1="54" y1="96.0" x2="806" y2="96.0" stroke="#21262d" stroke-opacity="1" stroke-width="2" stroke-dasharray="2 8"/><text x="46" y="100.0" font-size="11" font-weight="700" fill="#999999" font-family="ui-monospace,SFMono-Regular,'SF Mono',Menlo,Consolas,monospace" text-anchor="end">42</text>
  <line x1="54" y1="258" x2="806" y2="258" stroke="#30363d" stroke-width="2"/>
  <rect x="55.5" y="234.9" width="17" height="23.1" fill="#FFD500" fill-opacity="0.45" stroke="#FFD500" stroke-width="1.5"/><rect x="79.9" y="150.0" width="17" height="108.0" fill="#FFD500" fill-opacity="0.45" stroke="#FFD500" stroke-width="1.5"/><rect x="104.3" y="234.9" width="17" height="23.1" fill="#FFD500" fill-opacity="0.45" stroke="#FFD500" stroke-width="1.5"/><rect x="128.7" y="180.9" width="17" height="77.1" fill="#FFD500" fill-opacity="0.45" stroke="#FFD500" stroke-width="1.5"/><rect x="153.1" y="180.9" width="17" height="77.1" fill="#FFD500" fill-opacity="0.45" stroke="#FFD500" stroke-width="1.5"/><rect x="177.5" y="258.0" width="17" height="0.0" fill="#FFD500" fill-opacity="0.45" stroke="#FFD500" stroke-width="1.5"/><rect x="201.9" y="258.0" width="17" height="0.0" fill="#FFD500" fill-opacity="0.45" stroke="#FFD500" stroke-width="1.5"/><rect x="226.3" y="258.0" width="17" height="0.0" fill="#FFD500" fill-opacity="0.45" stroke="#FFD500" stroke-width="1.5"/><rect x="250.7" y="238.7" width="17" height="19.3" fill="#FFD500" fill-opacity="0.45" stroke="#FFD500" stroke-width="1.5"/><rect x="275.1" y="223.3" width="17" height="34.7" fill="#FFD500" fill-opacity="0.45" stroke="#FFD500" stroke-width="1.5"/><rect x="299.5" y="242.6" width="17" height="15.4" fill="#FFD500" fill-opacity="0.45" stroke="#FFD500" stroke-width="1.5"/><rect x="323.9" y="180.9" width="17" height="77.1" fill="#FFD500" fill-opacity="0.45" stroke="#FFD500" stroke-width="1.5"/><rect x="348.3" y="246.4" width="17" height="11.6" fill="#FFD500" fill-opacity="0.45" stroke="#FFD500" stroke-width="1.5"/><rect x="372.7" y="258.0" width="17" height="0.0" fill="#FFD500" fill-opacity="0.45" stroke="#FFD500" stroke-width="1.5"/><rect x="397.1" y="242.6" width="17" height="15.4" fill="#FFD500" fill-opacity="0.45" stroke="#FFD500" stroke-width="1.5"/><rect x="421.5" y="211.7" width="17" height="46.3" fill="#FFD500" fill-opacity="0.45" stroke="#FFD500" stroke-width="1.5"/><rect x="445.9" y="200.1" width="17" height="57.9" fill="#FFD500" fill-opacity="0.45" stroke="#FFD500" stroke-width="1.5"/><rect x="470.3" y="231.0" width="17" height="27.0" fill="#FFD500" fill-opacity="0.45" stroke="#FFD500" stroke-width="1.5"/><rect x="494.7" y="238.7" width="17" height="19.3" fill="#FFD500" fill-opacity="0.45" stroke="#FFD500" stroke-width="1.5"/><rect x="519.1" y="258.0" width="17" height="0.0" fill="#FFD500" fill-opacity="0.45" stroke="#FFD500" stroke-width="1.5"/><rect x="543.5" y="231.0" width="17" height="27.0" fill="#FFD500" fill-opacity="0.45" stroke="#FFD500" stroke-width="1.5"/><rect x="567.9" y="246.4" width="17" height="11.6" fill="#FFD500" fill-opacity="0.45" stroke="#FFD500" stroke-width="1.5"/><rect x="592.3" y="177.0" width="17" height="81.0" fill="#FFD500" fill-opacity="0.45" stroke="#FFD500" stroke-width="1.5"/><rect x="616.7" y="211.7" width="17" height="46.3" fill="#FFD500" fill-opacity="0.45" stroke="#FFD500" stroke-width="1.5"/><rect x="641.1" y="242.6" width="17" height="15.4" fill="#FFD500" fill-opacity="0.45" stroke="#FFD500" stroke-width="1.5"/><rect x="665.5" y="258.0" width="17" height="0.0" fill="#FFD500" fill-opacity="0.45" stroke="#FFD500" stroke-width="1.5"/><rect x="689.9" y="130.7" width="17" height="127.3" fill="#FFD500" fill-opacity="0.45" stroke="#FFD500" stroke-width="1.5"/><rect x="714.3" y="207.9" width="17" height="50.1" fill="#FFD500" fill-opacity="0.45" stroke="#FFD500" stroke-width="1.5"/><rect x="738.7" y="96.0" width="17" height="162.0" fill="#FFD500" fill-opacity="0.45" stroke="#FFD500" stroke-width="1.5"/><rect x="763.1" y="234.9" width="17" height="23.1" fill="#FFD500" fill-opacity="0.45" stroke="#FFD500" stroke-width="1.5"/><rect x="787.5" y="258.0" width="17" height="0.0" fill="#FFD500" fill-opacity="1" stroke="#FFD500" stroke-width="1.5"/><text x="64.0" y="282" font-size="11" font-weight="700" fill="#999999" font-family="ui-monospace,SFMono-Regular,'SF Mono',Menlo,Consolas,monospace" text-anchor="middle">08-02</text><text x="186.0" y="282" font-size="11" font-weight="700" fill="#999999" font-family="ui-monospace,SFMono-Regular,'SF Mono',Menlo,Consolas,monospace" text-anchor="middle">08-07</text><text x="308.0" y="282" font-size="11" font-weight="700" fill="#999999" font-family="ui-monospace,SFMono-Regular,'SF Mono',Menlo,Consolas,monospace" text-anchor="middle">08-12</text><text x="430.0" y="282" font-size="11" font-weight="700" fill="#999999" font-family="ui-monospace,SFMono-Regular,'SF Mono',Menlo,Consolas,monospace" text-anchor="middle">08-17</text><text x="552.0" y="282" font-size="11" font-weight="700" fill="#999999" font-family="ui-monospace,SFMono-Regular,'SF Mono',Menlo,Consolas,monospace" text-anchor="middle">08-22</text><text x="674.0" y="282" font-size="11" font-weight="700" fill="#999999" font-family="ui-monospace,SFMono-Regular,'SF Mono',Menlo,Consolas,monospace" text-anchor="middle">08-27</text><text x="796.0" y="282" font-size="11" font-weight="700" fill="#999999" font-family="ui-monospace,SFMono-Regular,'SF Mono',Menlo,Consolas,monospace" text-anchor="middle">09-01</text>
</svg>
