<svg width="833" height="338" viewBox="0 0 833 338" fill="none" xmlns="http://www.w3.org/2000/svg" role="img" aria-label="380 contributions in the last 31 days">
  <defs>
    <linearGradient id="area" x1="0" y1="0" x2="0" y2="1">
      <stop offset="0" stop-color="#FFD500" stop-opacity="0.45"/>
      <stop offset="1" stop-color="#FFD500" stop-opacity="0.02"/>
    </linearGradient>
  </defs>
  <rect x="10" y="10" width="823" height="328" fill="#FFD500"/>
  <rect x="2" y="2" width="823" height="328" fill="#0d1117" stroke="#30363d" stroke-width="1"/>
  <rect x="24" y="24" width="10" height="10" fill="none" stroke="#999999" stroke-width="2"/>
  <rect x="44" y="24" width="10" height="10" fill="none" stroke="#999999" stroke-width="2"/>
  <rect x="64" y="24" width="10" height="10" fill="#FFD500"/>
  <text x="92" y="33" font-size="13" fill="#999999" font-family="ui-monospace,SFMono-Regular,'SF Mono',Menlo,Consolas,monospace">activity.log</text>
  <text x="807" y="33" font-size="11" fill="#999999" font-family="ui-monospace,SFMono-Regular,'SF Mono',Menlo,Consolas,monospace" text-anchor="end">last 31 days</text>
  <line x1="20" y1="46" x2="807" y2="46" stroke="#21262d" stroke-width="2"/>
  <line x1="56" y1="250.0" x2="799" y2="250.0" stroke="#21262d" stroke-width="1"/>
  <text x="46" y="254.0" font-size="11" fill="#777777" font-family="ui-monospace,SFMono-Regular,'SF Mono',Menlo,Consolas,monospace" text-anchor="end">0</text>
  <line x1="56" y1="158.7" x2="799" y2="158.7" stroke="#21262d" stroke-width="1"/>
  <text x="46" y="162.7" font-size="11" fill="#777777" font-family="ui-monospace,SFMono-Regular,'SF Mono',Menlo,Consolas,monospace" text-anchor="end">34</text>
  <line x1="56" y1="70.0" x2="799" y2="70.0" stroke="#21262d" stroke-width="1"/>
  <text x="46" y="74.0" font-size="11" fill="#777777" font-family="ui-monospace,SFMono-Regular,'SF Mono',Menlo,Consolas,monospace" text-anchor="end">67</text>
  <path d="M56.0,239.3 C60.1,212.4 72.5,81.2 80.8,78.1 C89.0,74.9 97.3,193.1 105.5,220.4 C113.8,247.8 122.0,240.1 130.3,241.9 C138.6,243.7 146.8,242.8 155.1,231.2 C163.3,219.6 171.6,199.0 179.8,172.1 C188.1,145.2 196.3,59.7 204.6,70.0 C212.9,80.3 221.1,216.4 229.4,233.9 C237.6,251.3 245.9,174.8 254.1,174.8 C262.4,174.8 270.6,230.3 278.9,233.9 C287.2,237.5 295.4,202.5 303.7,196.3 C311.9,190.0 320.2,187.3 328.4,196.3 C336.7,205.2 344.9,241.0 353.2,250.0 C361.5,259.0 369.7,250.0 378.0,250.0 C386.2,250.0 394.5,252.2 402.7,250.0 C411.0,247.8 419.2,240.6 427.5,236.6 C435.8,232.5 444.0,225.4 452.3,225.8 C460.5,226.3 468.8,244.2 477.0,239.3 C485.3,234.3 493.5,195.8 501.8,196.3 C510.1,196.7 518.3,233.0 526.6,241.9 C534.8,250.9 543.1,250.4 551.3,250.0 C559.6,249.6 567.8,244.6 576.1,239.3 C584.4,233.9 592.6,222.7 600.9,217.8 C609.1,212.8 617.4,207.5 625.6,209.7 C633.9,211.9 642.1,226.7 650.4,231.2 C658.7,235.7 666.9,233.4 675.2,236.6 C683.4,239.7 691.7,250.9 699.9,250.0 C708.2,249.1 716.4,232.5 724.7,231.2 C733.0,229.9 741.2,248.2 749.5,241.9 C757.7,235.7 766.0,192.2 774.2,193.6 C782.5,194.9 794.9,240.6 799.0,250.0 L799.0,250.0 L56,250 Z" fill="url(#area)"/>
  <path d="M56.0,239.3 C60.1,212.4 72.5,81.2 80.8,78.1 C89.0,74.9 97.3,193.1 105.5,220.4 C113.8,247.8 122.0,240.1 130.3,241.9 C138.6,243.7 146.8,242.8 155.1,231.2 C163.3,219.6 171.6,199.0 179.8,172.1 C188.1,145.2 196.3,59.7 204.6,70.0 C212.9,80.3 221.1,216.4 229.4,233.9 C237.6,251.3 245.9,174.8 254.1,174.8 C262.4,174.8 270.6,230.3 278.9,233.9 C287.2,237.5 295.4,202.5 303.7,196.3 C311.9,190.0 320.2,187.3 328.4,196.3 C336.7,205.2 344.9,241.0 353.2,250.0 C361.5,259.0 369.7,250.0 378.0,250.0 C386.2,250.0 394.5,252.2 402.7,250.0 C411.0,247.8 419.2,240.6 427.5,236.6 C435.8,232.5 444.0,225.4 452.3,225.8 C460.5,226.3 468.8,244.2 477.0,239.3 C485.3,234.3 493.5,195.8 501.8,196.3 C510.1,196.7 518.3,233.0 526.6,241.9 C534.8,250.9 543.1,250.4 551.3,250.0 C559.6,249.6 567.8,244.6 576.1,239.3 C584.4,233.9 592.6,222.7 600.9,217.8 C609.1,212.8 617.4,207.5 625.6,209.7 C633.9,211.9 642.1,226.7 650.4,231.2 C658.7,235.7 666.9,233.4 675.2,236.6 C683.4,239.7 691.7,250.9 699.9,250.0 C708.2,249.1 716.4,232.5 724.7,231.2 C733.0,229.9 741.2,248.2 749.5,241.9 C757.7,235.7 766.0,192.2 774.2,193.6 C782.5,194.9 794.9,240.6 799.0,250.0" stroke="#FFD500" stroke-width="2.5" stroke-linejoin="round" stroke-linecap="round"/>
  <rect x="53.5" y="236.8" width="5" height="5" fill="#0d1117" stroke="#FFD500" stroke-width="1.5"/>
  <rect x="78.3" y="75.6" width="5" height="5" fill="#0d1117" stroke="#FFD500" stroke-width="1.5"/>
  <rect x="103.0" y="217.9" width="5" height="5" fill="#0d1117" stroke="#FFD500" stroke-width="1.5"/>
  <rect x="127.8" y="239.4" width="5" height="5" fill="#0d1117" stroke="#FFD500" stroke-width="1.5"/>
  <rect x="152.6" y="228.7" width="5" height="5" fill="#0d1117" stroke="#FFD500" stroke-width="1.5"/>
  <rect x="177.3" y="169.6" width="5" height="5" fill="#0d1117" stroke="#FFD500" stroke-width="1.5"/>
  <rect x="202.1" y="67.5" width="5" height="5" fill="#0d1117" stroke="#FFD500" stroke-width="1.5"/>
  <rect x="226.9" y="231.4" width="5" height="5" fill="#0d1117" stroke="#FFD500" stroke-width="1.5"/>
  <rect x="251.6" y="172.3" width="5" height="5" fill="#0d1117" stroke="#FFD500" stroke-width="1.5"/>
  <rect x="276.4" y="231.4" width="5" height="5" fill="#0d1117" stroke="#FFD500" stroke-width="1.5"/>
  <rect x="301.2" y="193.8" width="5" height="5" fill="#0d1117" stroke="#FFD500" stroke-width="1.5"/>
  <rect x="325.9" y="193.8" width="5" height="5" fill="#0d1117" stroke="#FFD500" stroke-width="1.5"/>
  <rect x="350.7" y="247.5" width="5" height="5" fill="#0d1117" stroke="#FFD500" stroke-width="1.5"/>
  <rect x="375.5" y="247.5" width="5" height="5" fill="#0d1117" stroke="#FFD500" stroke-width="1.5"/>
  <rect x="400.2" y="247.5" width="5" height="5" fill="#0d1117" stroke="#FFD500" stroke-width="1.5"/>
  <rect x="425.0" y="234.1" width="5" height="5" fill="#0d1117" stroke="#FFD500" stroke-width="1.5"/>
  <rect x="449.8" y="223.3" width="5" height="5" fill="#0d1117" stroke="#FFD500" stroke-width="1.5"/>
  <rect x="474.5" y="236.8" width="5" height="5" fill="#0d1117" stroke="#FFD500" stroke-width="1.5"/>
  <rect x="499.3" y="193.8" width="5" height="5" fill="#0d1117" stroke="#FFD500" stroke-width="1.5"/>
  <rect x="524.1" y="239.4" width="5" height="5" fill="#0d1117" stroke="#FFD500" stroke-width="1.5"/>
  <rect x="548.8" y="247.5" width="5" height="5" fill="#0d1117" stroke="#FFD500" stroke-width="1.5"/>
  <rect x="573.6" y="236.8" width="5" height="5" fill="#0d1117" stroke="#FFD500" stroke-width="1.5"/>
  <rect x="598.4" y="215.3" width="5" height="5" fill="#0d1117" stroke="#FFD500" stroke-width="1.5"/>
  <rect x="623.1" y="207.2" width="5" height="5" fill="#0d1117" stroke="#FFD500" stroke-width="1.5"/>
  <rect x="647.9" y="228.7" width="5" height="5" fill="#0d1117" stroke="#FFD500" stroke-width="1.5"/>
  <rect x="672.7" y="234.1" width="5" height="5" fill="#0d1117" stroke="#FFD500" stroke-width="1.5"/>
  <rect x="697.4" y="247.5" width="5" height="5" fill="#0d1117" stroke="#FFD500" stroke-width="1.5"/>
  <rect x="722.2" y="228.7" width="5" height="5" fill="#0d1117" stroke="#FFD500" stroke-width="1.5"/>
  <rect x="747.0" y="239.4" width="5" height="5" fill="#0d1117" stroke="#FFD500" stroke-width="1.5"/>
  <rect x="771.7" y="191.1" width="5" height="5" fill="#0d1117" stroke="#FFD500" stroke-width="1.5"/>
  <rect x="796.5" y="247.5" width="5" height="5" fill="#0d1117" stroke="#FFD500" stroke-width="1.5"/>
  <text x="56.0" y="272" font-size="11" fill="#777777" font-family="ui-monospace,SFMono-Regular,'SF Mono',Menlo,Consolas,monospace" text-anchor="middle">07-26</text>
  
  
  
  
  <text x="179.8" y="272" font-size="11" fill="#777777" font-family="ui-monospace,SFMono-Regular,'SF Mono',Menlo,Consolas,monospace" text-anchor="middle">07-31</text>
  
  
  
  
  <text x="303.7" y="272" font-size="11" fill="#777777" font-family="ui-monospace,SFMono-Regular,'SF Mono',Menlo,Consolas,monospace" text-anchor="middle">08-05</text>
  
  
  
  
  <text x="427.5" y="272" font-size="11" fill="#777777" font-family="ui-monospace,SFMono-Regular,'SF Mono',Menlo,Consolas,monospace" text-anchor="middle">08-10</text>
  
  
  
  
  <text x="551.3" y="272" font-size="11" fill="#777777" font-family="ui-monospace,SFMono-Regular,'SF Mono',Menlo,Consolas,monospace" text-anchor="middle">08-15</text>
  
  
  
  
  <text x="675.2" y="272" font-size="11" fill="#777777" font-family="ui-monospace,SFMono-Regular,'SF Mono',Menlo,Consolas,monospace" text-anchor="middle">08-20</text>
  
  
  
  
  <text x="799.0" y="272" font-size="11" fill="#777777" font-family="ui-monospace,SFMono-Regular,'SF Mono',Menlo,Consolas,monospace" text-anchor="middle">08-25</text>
  <text x="24" y="302" font-size="13" font-family="ui-monospace,SFMono-Regular,'SF Mono',Menlo,Consolas,monospace"><tspan fill="#FFD500">$</tspan><tspan fill="#FFFFFF"> 380 contributions in the last 31 days</tspan></text>
  <rect x="332.1" y="291" width="7" height="14" fill="#FFD500">
    <animate attributeName="opacity" values="1;1;0;0" keyTimes="0;0.5;0.5;1" dur="1.1s" repeatCount="indefinite"/>
  </rect>
</svg>
