<svg width="480" height="180" viewBox="0 0 480 180" fill="none" xmlns="http://www.w3.org/2000/svg" role="img" aria-label="meta-mcp-manager">
  <rect x="10" y="10" width="470" height="170" fill="#111111"/>
  <rect x="2" y="2" width="470" height="170" fill="#FFFFFF" stroke="#111111" stroke-width="2"/>
  <rect x="28" y="34" width="78" height="17" fill="#FFD500"/><text x="34" y="46" font-size="10" letter-spacing="2" font-weight="700" font-family="ui-monospace,SFMono-Regular,'SF Mono',Menlo,Consolas,monospace"><tspan fill="#111111">BUILDING</tspan><tspan fill="#777777">&#160;/ 06</tspan></text>
  <g transform="translate(34,61) scale(0.8)" fill="none" stroke="#111111" stroke-width="2.4" stroke-linecap="square" stroke-linejoin="miter"><rect x="16" y="16" width="6" height="6" rx="1"/><rect x="2" y="16" width="6" height="6" rx="1"/><rect x="9" y="2" width="6" height="6" rx="1"/><path d="M5 16v-3a1 1 0 0 1 1-1h12a1 1 0 0 1 1 1v3"/><path d="M12 12V8"/></g>
  <text x="64" y="78" font-size="17.5" font-weight="800" fill="#111111" font-family="-apple-system,BlinkMacSystemFont,'Segoe UI',Inter,Helvetica,Arial,sans-serif">meta-mcp-manager</text>
  <text x="34" y="106" font-size="13.5" fill="#333333" font-family="-apple-system,BlinkMacSystemFont,'Segoe UI',Inter,Helvetica,Arial,sans-serif">One retrieval-first endpoint for many MCP servers. Agents</text>
  <text x="34" y="127" font-size="13.5" fill="#333333" font-family="-apple-system,BlinkMacSystemFont,'Segoe UI',Inter,Helvetica,Arial,sans-serif">fetch tools on demand instead of loading them all.</text>
  <g>
    <rect x="34" y="138" width="42" height="24" fill="#FFD500" stroke="#111111" stroke-width="2"/>
    <text x="55" y="154" font-size="10.5" font-weight="700" fill="#111111" font-family="ui-monospace,SFMono-Regular,'SF Mono',Menlo,Consolas,monospace" text-anchor="middle">mcp</text>
  </g>
  <g>
    <rect x="86" y="138" width="68" height="24" fill="#FFD500" stroke="#111111" stroke-width="2"/>
    <text x="120" y="154" font-size="10.5" font-weight="700" fill="#111111" font-family="ui-monospace,SFMono-Regular,'SF Mono',Menlo,Consolas,monospace" text-anchor="middle">fastapi</text>
  </g>
</svg>
